# xmcd
#
# Track frame offsets:
# 150
# 21157
# 35712
# 56435
# 70977
# 89972
# 97030
# 114145
# 127605
# 144952
#
# Disc length: 2205 seconds
#
#
# Revision: 0
# Processed by: cddbd v1.5.2PL0 Copyright (c) Steve Scherf et al.
# Submitted via: FreeRIP 2.944 
#
DISCID=84089b0a
DTITLE=bob vogt - wiggle the wire
DYEAR=2002
DGENRE=Rock
TTITLE0=find my way
TTITLE1=baby it's you
TTITLE2=outta time
TTITLE3=emily
TTITLE4=powder blue
TTITLE5=dream #46
TTITLE6=baltimore
TTITLE7=trail of tears
TTITLE8=my baby
TTITLE9=riding high
EXTD=
EXTT0=
EXTT1=
EXTT2=
EXTT3=
EXTT4=
EXTT5=
EXTT6=
EXTT7=
EXTT8=
EXTT9=
PLAYORDER=
